<?xml version="1.0" standalone="no"?>
<!DOCTYPE svg PUBLIC "-//W3C//DTD SVG 1.1//EN" "http://www.w3.org/
Graphics/SVG/1.1/DTD/svg11.dtd">
<svg width="600" height="100" version="1.1"
xmlns="http://www.w3.org/2000/svg">
<rect y="0" width="600" height="100" style="fill:none;stroke-width:1;stroke:black;stroke-width:3"/> <line x1="12" x2="12" y1="0" y2="66" style="stroke:grey"/> <text x="15" y="50" font-size="16">0</text><line x1="15" x2="15" y1="0" y2="12" style="stroke:grey"/> <line x1="18" x2="18" y1="0" y2="4" style="stroke:grey"/> <line x1="21" x2="21" y1="0" y2="12" style="stroke:grey"/> <line x1="24" x2="24" y1="0" y2="8" style="stroke:grey"/> <line x1="27" x2="27" y1="0" y2="12" style="stroke:grey"/> <line x1="30" x2="30" y1="0" y2="4" style="stroke:grey"/> <line x1="33" x2="33" y1="0" y2="12" style="stroke:grey"/> <line x1="36" x2="36" y1="0" y2="16" style="stroke:grey"/> <line x1="39" x2="39" y1="0" y2="12" style="stroke:grey"/> <line x1="42" x2="42" y1="0" y2="4" style="stroke:grey"/> <line x1="45" x2="45" y1="0" y2="12" style="stroke:grey"/> <line x1="48" x2="48" y1="0" y2="8" style="stroke:grey"/> <line x1="51" x2="51" y1="0" y2="12" style="stroke:grey"/> <line x1="54" x2="54" y1="0" y2="4" style="stroke:grey"/> <line x1="57" x2="57" y1="0" y2="12" style="stroke:grey"/> <line x1="60" x2="60" y1="0" y2="33" style="stroke:grey"/> <line x1="63" x2="63" y1="0" y2="12" style="stroke:grey"/> <line x1="66" x2="66" y1="0" y2="4" style="stroke:grey"/> <line x1="69" x2="69" y1="0" y2="12" style="stroke:grey"/> <line x1="72" x2="72" y1="0" y2="8" style="stroke:grey"/> <line x1="75" x2="75" y1="0" y2="12" style="stroke:grey"/> <line x1="78" x2="78" y1="0" y2="4" style="stroke:grey"/> <line x1="81" x2="81" y1="0" y2="12" style="stroke:grey"/> <line x1="84" x2="84" y1="0" y2="16" style="stroke:grey"/> <line x1="87" x2="87" y1="0" y2="12" style="stroke:grey"/> <line x1="90" x2="90" y1="0" y2="4" style="stroke:grey"/> <line x1="93" x2="93" y1="0" y2="12" style="stroke:grey"/> <line x1="96" x2="96" y1="0" y2="8" style="stroke:grey"/> <line x1="99" x2="99" y1="0" y2="12" style="stroke:grey"/> <line x1="102" x2="102" y1="0" y2="4" style="stroke:grey"/> <line x1="105" x2="105" y1="0" y2="12" style="stroke:grey"/> <line x1="108" x2="108" y1="0" y2="66" style="stroke:grey"/> <text x="111" y="50" font-size="16">1</text><line x1="111" x2="111" y1="0" y2="12" style="stroke:grey"/> <line x1="114" x2="114" y1="0" y2="4" style="stroke:grey"/> <line x1="117" x2="117" y1="0" y2="12" style="stroke:grey"/> <line x1="120" x2="120" y1="0" y2="8" style="stroke:grey"/> <line x1="123" x2="123" y1="0" y2="12" style="stroke:grey"/> <line x1="126" x2="126" y1="0" y2="4" style="stroke:grey"/> <line x1="129" x2="129" y1="0" y2="12" style="stroke:grey"/> <line x1="132" x2="132" y1="0" y2="16" style="stroke:grey"/> <line x1="135" x2="135" y1="0" y2="12" style="stroke:grey"/> <line x1="138" x2="138" y1="0" y2="4" style="stroke:grey"/> <line x1="141" x2="141" y1="0" y2="12" style="stroke:grey"/> <line x1="144" x2="144" y1="0" y2="8" style="stroke:grey"/> <line x1="147" x2="147" y1="0" y2="12" style="stroke:grey"/> <line x1="150" x2="150" y1="0" y2="4" style="stroke:grey"/> <line x1="153" x2="153" y1="0" y2="12" style="stroke:grey"/> <line x1="156" x2="156" y1="0" y2="33" style="stroke:grey"/> <line x1="159" x2="159" y1="0" y2="12" style="stroke:grey"/> <line x1="162" x2="162" y1="0" y2="4" style="stroke:grey"/> <line x1="165" x2="165" y1="0" y2="12" style="stroke:grey"/> <line x1="168" x2="168" y1="0" y2="8" style="stroke:grey"/> <line x1="171" x2="171" y1="0" y2="12" style="stroke:grey"/> <line x1="174" x2="174" y1="0" y2="4" style="stroke:grey"/> <line x1="177" x2="177" y1="0" y2="12" style="stroke:grey"/> <line x1="180" x2="180" y1="0" y2="16" style="stroke:grey"/> <line x1="183" x2="183" y1="0" y2="12" style="stroke:grey"/> <line x1="186" x2="186" y1="0" y2="4" style="stroke:grey"/> <line x1="189" x2="189" y1="0" y2="12" style="stroke:grey"/> <line x1="192" x2="192" y1="0" y2="8" style="stroke:grey"/> <line x1="195" x2="195" y1="0" y2="12" style="stroke:grey"/> <line x1="198" x2="198" y1="0" y2="4" style="stroke:grey"/> <line x1="201" x2="201" y1="0" y2="12" style="stroke:grey"/> <line x1="204" x2="204" y1="0" y2="66" style="stroke:grey"/> <text x="207" y="50" font-size="16">2</text><line x1="207" x2="207" y1="0" y2="12" style="stroke:grey"/> <line x1="210" x2="210" y1="0" y2="4" style="stroke:grey"/> <line x1="213" x2="213" y1="0" y2="12" style="stroke:grey"/> <line x1="216" x2="216" y1="0" y2="8" style="stroke:grey"/> <line x1="219" x2="219" y1="0" y2="12" style="stroke:grey"/> <line x1="222" x2="222" y1="0" y2="4" style="stroke:grey"/> <line x1="225" x2="225" y1="0" y2="12" style="stroke:grey"/> <line x1="228" x2="228" y1="0" y2="16" style="stroke:grey"/> <line x1="231" x2="231" y1="0" y2="12" style="stroke:grey"/> <line x1="234" x2="234" y1="0" y2="4" style="stroke:grey"/> <line x1="237" x2="237" y1="0" y2="12" style="stroke:grey"/> <line x1="240" x2="240" y1="0" y2="8" style="stroke:grey"/> <line x1="243" x2="243" y1="0" y2="12" style="stroke:grey"/> <line x1="246" x2="246" y1="0" y2="4" style="stroke:grey"/> <line x1="249" x2="249" y1="0" y2="12" style="stroke:grey"/> <line x1="252" x2="252" y1="0" y2="33" style="stroke:grey"/> <line x1="255" x2="255" y1="0" y2="12" style="stroke:grey"/> <line x1="258" x2="258" y1="0" y2="4" style="stroke:grey"/> <line x1="261" x2="261" y1="0" y2="12" style="stroke:grey"/> <line x1="264" x2="264" y1="0" y2="8" style="stroke:grey"/> <line x1="267" x2="267" y1="0" y2="12" style="stroke:grey"/> <line x1="270" x2="270" y1="0" y2="4" style="stroke:grey"/> <line x1="273" x2="273" y1="0" y2="12" style="stroke:grey"/> <line x1="276" x2="276" y1="0" y2="16" style="stroke:grey"/> <line x1="279" x2="279" y1="0" y2="12" style="stroke:grey"/> <line x1="282" x2="282" y1="0" y2="4" style="stroke:grey"/> <line x1="285" x2="285" y1="0" y2="12" style="stroke:grey"/> <line x1="288" x2="288" y1="0" y2="8" style="stroke:grey"/> <line x1="291" x2="291" y1="0" y2="12" style="stroke:grey"/> <line x1="294" x2="294" y1="0" y2="4" style="stroke:grey"/> <line x1="297" x2="297" y1="0" y2="12" style="stroke:grey"/> <line x1="300" x2="300" y1="0" y2="66" style="stroke:grey"/> <text x="303" y="50" font-size="16">3</text><line x1="303" x2="303" y1="0" y2="12" style="stroke:grey"/> <line x1="306" x2="306" y1="0" y2="4" style="stroke:grey"/> <line x1="309" x2="309" y1="0" y2="12" style="stroke:grey"/> <line x1="312" x2="312" y1="0" y2="8" style="stroke:grey"/> <line x1="315" x2="315" y1="0" y2="12" style="stroke:grey"/> <line x1="318" x2="318" y1="0" y2="4" style="stroke:grey"/> <line x1="321" x2="321" y1="0" y2="12" style="stroke:grey"/> <line x1="324" x2="324" y1="0" y2="16" style="stroke:grey"/> <line x1="327" x2="327" y1="0" y2="12" style="stroke:grey"/> <line x1="330" x2="330" y1="0" y2="4" style="stroke:grey"/> <line x1="333" x2="333" y1="0" y2="12" style="stroke:grey"/> <line x1="336" x2="336" y1="0" y2="8" style="stroke:grey"/> <line x1="339" x2="339" y1="0" y2="12" style="stroke:grey"/> <line x1="342" x2="342" y1="0" y2="4" style="stroke:grey"/> <line x1="345" x2="345" y1="0" y2="12" style="stroke:grey"/> <line x1="348" x2="348" y1="0" y2="33" style="stroke:grey"/> <line x1="351" x2="351" y1="0" y2="12" style="stroke:grey"/> <line x1="354" x2="354" y1="0" y2="4" style="stroke:grey"/> <line x1="357" x2="357" y1="0" y2="12" style="stroke:grey"/> <line x1="360" x2="360" y1="0" y2="8" style="stroke:grey"/> <line x1="363" x2="363" y1="0" y2="12" style="stroke:grey"/> <line x1="366" x2="366" y1="0" y2="4" style="stroke:grey"/> <line x1="369" x2="369" y1="0" y2="12" style="stroke:grey"/> <line x1="372" x2="372" y1="0" y2="16" style="stroke:grey"/> <line x1="375" x2="375" y1="0" y2="12" style="stroke:grey"/> <line x1="378" x2="378" y1="0" y2="4" style="stroke:grey"/> <line x1="381" x2="381" y1="0" y2="12" style="stroke:grey"/> <line x1="384" x2="384" y1="0" y2="8" style="stroke:grey"/> <line x1="387" x2="387" y1="0" y2="12" style="stroke:grey"/> <line x1="390" x2="390" y1="0" y2="4" style="stroke:grey"/> <line x1="393" x2="393" y1="0" y2="12" style="stroke:grey"/> <line x1="396" x2="396" y1="0" y2="66" style="stroke:grey"/> <text x="399" y="50" font-size="16">4</text><line x1="399" x2="399" y1="0" y2="12" style="stroke:grey"/> <line x1="402" x2="402" y1="0" y2="4" style="stroke:grey"/> <line x1="405" x2="405" y1="0" y2="12" style="stroke:grey"/> <line x1="408" x2="408" y1="0" y2="8" style="stroke:grey"/> <line x1="411" x2="411" y1="0" y2="12" style="stroke:grey"/> <line x1="414" x2="414" y1="0" y2="4" style="stroke:grey"/> <line x1="417" x2="417" y1="0" y2="12" style="stroke:grey"/> <line x1="420" x2="420" y1="0" y2="16" style="stroke:grey"/> <line x1="423" x2="423" y1="0" y2="12" style="stroke:grey"/> <line x1="426" x2="426" y1="0" y2="4" style="stroke:grey"/> <line x1="429" x2="429" y1="0" y2="12" style="stroke:grey"/> <line x1="432" x2="432" y1="0" y2="8" style="stroke:grey"/> <line x1="435" x2="435" y1="0" y2="12" style="stroke:grey"/> <line x1="438" x2="438" y1="0" y2="4" style="stroke:grey"/> <line x1="441" x2="441" y1="0" y2="12" style="stroke:grey"/> <line x1="444" x2="444" y1="0" y2="33" style="stroke:grey"/> <line x1="447" x2="447" y1="0" y2="12" style="stroke:grey"/> <line x1="450" x2="450" y1="0" y2="4" style="stroke:grey"/> <line x1="453" x2="453" y1="0" y2="12" style="stroke:grey"/> <line x1="456" x2="456" y1="0" y2="8" style="stroke:grey"/> <line x1="459" x2="459" y1="0" y2="12" style="stroke:grey"/> <line x1="462" x2="462" y1="0" y2="4" style="stroke:grey"/> <line x1="465" x2="465" y1="0" y2="12" style="stroke:grey"/> <line x1="468" x2="468" y1="0" y2="16" style="stroke:grey"/> <line x1="471" x2="471" y1="0" y2="12" style="stroke:grey"/> <line x1="474" x2="474" y1="0" y2="4" style="stroke:grey"/> <line x1="477" x2="477" y1="0" y2="12" style="stroke:grey"/> <line x1="480" x2="480" y1="0" y2="8" style="stroke:grey"/> <line x1="483" x2="483" y1="0" y2="12" style="stroke:grey"/> <line x1="486" x2="486" y1="0" y2="4" style="stroke:grey"/> <line x1="489" x2="489" y1="0" y2="12" style="stroke:grey"/> <line x1="492" x2="492" y1="0" y2="66" style="stroke:grey"/> <text x="495" y="50" font-size="16">5</text><line x1="495" x2="495" y1="0" y2="12" style="stroke:grey"/> <line x1="498" x2="498" y1="0" y2="4" style="stroke:grey"/> <line x1="501" x2="501" y1="0" y2="12" style="stroke:grey"/> <line x1="504" x2="504" y1="0" y2="8" style="stroke:grey"/> <line x1="507" x2="507" y1="0" y2="12" style="stroke:grey"/> <line x1="510" x2="510" y1="0" y2="4" style="stroke:grey"/> <line x1="513" x2="513" y1="0" y2="12" style="stroke:grey"/> <line x1="516" x2="516" y1="0" y2="16" style="stroke:grey"/> <line x1="519" x2="519" y1="0" y2="12" style="stroke:grey"/> <line x1="522" x2="522" y1="0" y2="4" style="stroke:grey"/> <line x1="525" x2="525" y1="0" y2="12" style="stroke:grey"/> <line x1="528" x2="528" y1="0" y2="8" style="stroke:grey"/> <line x1="531" x2="531" y1="0" y2="12" style="stroke:grey"/> <line x1="534" x2="534" y1="0" y2="4" style="stroke:grey"/> <line x1="537" x2="537" y1="0" y2="12" style="stroke:grey"/> <line x1="540" x2="540" y1="0" y2="33" style="stroke:grey"/> <line x1="543" x2="543" y1="0" y2="12" style="stroke:grey"/> <line x1="546" x2="546" y1="0" y2="4" style="stroke:grey"/> <line x1="549" x2="549" y1="0" y2="12" style="stroke:grey"/> <line x1="552" x2="552" y1="0" y2="8" style="stroke:grey"/> <line x1="555" x2="555" y1="0" y2="12" style="stroke:grey"/> <line x1="558" x2="558" y1="0" y2="4" style="stroke:grey"/> <line x1="561" x2="561" y1="0" y2="12" style="stroke:grey"/> <line x1="564" x2="564" y1="0" y2="16" style="stroke:grey"/> <line x1="567" x2="567" y1="0" y2="12" style="stroke:grey"/> <line x1="570" x2="570" y1="0" y2="4" style="stroke:grey"/> <line x1="573" x2="573" y1="0" y2="12" style="stroke:grey"/> <line x1="576" x2="576" y1="0" y2="8" style="stroke:grey"/> <line x1="579" x2="579" y1="0" y2="12" style="stroke:grey"/> <line x1="582" x2="582" y1="0" y2="4" style="stroke:grey"/> <line x1="585" x2="585" y1="0" y2="12" style="stroke:grey"/> <line x1="588" x2="588" y1="0" y2="66" style="stroke:grey"/> <text x="591" y="50" font-size="16">6</text></svg>
