<?xml version="1.0" standalone="no"?>
<!DOCTYPE svg PUBLIC "-//W3C//DTD SVG 1.1//EN" "http://www.w3.org/
Graphics/SVG/1.1/DTD/svg11.dtd">
<svg width="500" height="100" version="1.1"
xmlns="http://www.w3.org/2000/svg">
<line x1="19" x2="19" y1="0" y2="66" style="stroke:gray"/><text x="24" y="50" font-size="16">0</text><line x1="24" x2="24" y1="0" y2="12" style="stroke:gray"/><line x1="28" x2="28" y1="0" y2="8" style="stroke:gray"/><line x1="33" x2="33" y1="0" y2="12" style="stroke:gray"/><line x1="38" x2="38" y1="0" y2="16" style="stroke:gray"/><line x1="43" x2="43" y1="0" y2="12" style="stroke:gray"/><line x1="48" x2="48" y1="0" y2="8" style="stroke:gray"/><line x1="52" x2="52" y1="0" y2="12" style="stroke:gray"/><line x1="57" x2="57" y1="0" y2="33" style="stroke:gray"/><line x1="62" x2="62" y1="0" y2="12" style="stroke:gray"/><line x1="67" x2="67" y1="0" y2="8" style="stroke:gray"/><line x1="72" x2="72" y1="0" y2="12" style="stroke:gray"/><line x1="76" x2="76" y1="0" y2="16" style="stroke:gray"/><line x1="81" x2="81" y1="0" y2="12" style="stroke:gray"/><line x1="86" x2="86" y1="0" y2="8" style="stroke:gray"/><line x1="91" x2="91" y1="0" y2="12" style="stroke:gray"/><line x1="96" x2="96" y1="0" y2="66" style="stroke:gray"/><text x="100" y="50" font-size="16">1</text><line x1="100" x2="100" y1="0" y2="12" style="stroke:gray"/><line x1="105" x2="105" y1="0" y2="8" style="stroke:gray"/><line x1="110" x2="110" y1="0" y2="12" style="stroke:gray"/><line x1="115" x2="115" y1="0" y2="16" style="stroke:gray"/><line x1="120" x2="120" y1="0" y2="12" style="stroke:gray"/><line x1="125" x2="125" y1="0" y2="8" style="stroke:gray"/><line x1="129" x2="129" y1="0" y2="12" style="stroke:gray"/><line x1="134" x2="134" y1="0" y2="33" style="stroke:gray"/><line x1="139" x2="139" y1="0" y2="12" style="stroke:gray"/><line x1="144" x2="144" y1="0" y2="8" style="stroke:gray"/><line x1="149" x2="149" y1="0" y2="12" style="stroke:gray"/><line x1="153" x2="153" y1="0" y2="16" style="stroke:gray"/><line x1="158" x2="158" y1="0" y2="12" style="stroke:gray"/><line x1="163" x2="163" y1="0" y2="8" style="stroke:gray"/><line x1="168" x2="168" y1="0" y2="12" style="stroke:gray"/><line x1="173" x2="173" y1="0" y2="66" style="stroke:gray"/><text x="177" y="50" font-size="16">2</text><line x1="177" x2="177" y1="0" y2="12" style="stroke:gray"/><line x1="182" x2="182" y1="0" y2="8" style="stroke:gray"/><line x1="187" x2="187" y1="0" y2="12" style="stroke:gray"/><line x1="192" x2="192" y1="0" y2="16" style="stroke:gray"/><line x1="197" x2="197" y1="0" y2="12" style="stroke:gray"/><line x1="201" x2="201" y1="0" y2="8" style="stroke:gray"/><line x1="206" x2="206" y1="0" y2="12" style="stroke:gray"/><line x1="211" x2="211" y1="0" y2="33" style="stroke:gray"/><line x1="216" x2="216" y1="0" y2="12" style="stroke:gray"/><line x1="221" x2="221" y1="0" y2="8" style="stroke:gray"/><line x1="225" x2="225" y1="0" y2="12" style="stroke:gray"/><line x1="230" x2="230" y1="0" y2="16" style="stroke:gray"/><line x1="235" x2="235" y1="0" y2="12" style="stroke:gray"/><line x1="240" x2="240" y1="0" y2="8" style="stroke:gray"/><line x1="245" x2="245" y1="0" y2="12" style="stroke:gray"/><line x1="250" x2="250" y1="0" y2="66" style="stroke:gray"/><text x="254" y="50" font-size="16">3</text><line x1="254" x2="254" y1="0" y2="12" style="stroke:gray"/><line x1="259" x2="259" y1="0" y2="8" style="stroke:gray"/><line x1="264" x2="264" y1="0" y2="12" style="stroke:gray"/><line x1="269" x2="269" y1="0" y2="16" style="stroke:gray"/><line x1="274" x2="274" y1="0" y2="12" style="stroke:gray"/><line x1="278" x2="278" y1="0" y2="8" style="stroke:gray"/><line x1="283" x2="283" y1="0" y2="12" style="stroke:gray"/><line x1="288" x2="288" y1="0" y2="33" style="stroke:gray"/><line x1="293" x2="293" y1="0" y2="12" style="stroke:gray"/><line x1="298" x2="298" y1="0" y2="8" style="stroke:gray"/><line x1="302" x2="302" y1="0" y2="12" style="stroke:gray"/><line x1="307" x2="307" y1="0" y2="16" style="stroke:gray"/><line x1="312" x2="312" y1="0" y2="12" style="stroke:gray"/><line x1="317" x2="317" y1="0" y2="8" style="stroke:gray"/><line x1="322" x2="322" y1="0" y2="12" style="stroke:gray"/><line x1="326" x2="326" y1="0" y2="66" style="stroke:gray"/><text x="331" y="50" font-size="16">4</text><line x1="331" x2="331" y1="0" y2="12" style="stroke:gray"/><line x1="336" x2="336" y1="0" y2="8" style="stroke:gray"/><line x1="341" x2="341" y1="0" y2="12" style="stroke:gray"/><line x1="346" x2="346" y1="0" y2="16" style="stroke:gray"/><line x1="350" x2="350" y1="0" y2="12" style="stroke:gray"/><line x1="355" x2="355" y1="0" y2="8" style="stroke:gray"/><line x1="360" x2="360" y1="0" y2="12" style="stroke:gray"/><line x1="365" x2="365" y1="0" y2="33" style="stroke:gray"/><line x1="370" x2="370" y1="0" y2="12" style="stroke:gray"/><line x1="375" x2="375" y1="0" y2="8" style="stroke:gray"/><line x1="379" x2="379" y1="0" y2="12" style="stroke:gray"/><line x1="384" x2="384" y1="0" y2="16" style="stroke:gray"/><line x1="389" x2="389" y1="0" y2="12" style="stroke:gray"/><line x1="394" x2="394" y1="0" y2="8" style="stroke:gray"/><line x1="399" x2="399" y1="0" y2="12" style="stroke:gray"/><line x1="403" x2="403" y1="0" y2="66" style="stroke:gray"/><text x="408" y="50" font-size="16">5</text><line x1="408" x2="408" y1="0" y2="12" style="stroke:gray"/><line x1="413" x2="413" y1="0" y2="8" style="stroke:gray"/><line x1="418" x2="418" y1="0" y2="12" style="stroke:gray"/><line x1="423" x2="423" y1="0" y2="16" style="stroke:gray"/><line x1="427" x2="427" y1="0" y2="12" style="stroke:gray"/><line x1="432" x2="432" y1="0" y2="8" style="stroke:gray"/><line x1="437" x2="437" y1="0" y2="12" style="stroke:gray"/><line x1="442" x2="442" y1="0" y2="33" style="stroke:gray"/><line x1="447" x2="447" y1="0" y2="12" style="stroke:gray"/><line x1="451" x2="451" y1="0" y2="8" style="stroke:gray"/><line x1="456" x2="456" y1="0" y2="12" style="stroke:gray"/><line x1="461" x2="461" y1="0" y2="16" style="stroke:gray"/><line x1="466" x2="466" y1="0" y2="12" style="stroke:gray"/><line x1="471" x2="471" y1="0" y2="8" style="stroke:gray"/><line x1="475" x2="475" y1="0" y2="12" style="stroke:gray"/><line x1="480" x2="480" y1="0" y2="66" style="stroke:gray"/><text x="485" y="50" font-size="16">6</text><line x1="57" x2="57" y1="0" y2="66" style="stroke:red"/><text x="52" y="81" font-size="16">A</text><line x1="153" x2="153" y1="0" y2="66" style="stroke:red"/><text x="148" y="81" font-size="16">B</text><line x1="216" x2="216" y1="0" y2="66" style="stroke:red"/><text x="211" y="81" font-size="16">C</text><line x1="288" x2="288" y1="0" y2="66" style="stroke:red"/><text x="283" y="81" font-size="16">D</text><line x1="69" x2="69" y1="0" y2="66" style="stroke:red"/><text x="64" y="81" font-size="16">E</text><line x1="37" x2="37" y1="0" y2="66" style="stroke:red"/><text x="32" y="81" font-size="16">F</text><line x1="365" x2="365" y1="0" y2="66" style="stroke:red"/><text x="360" y="81" font-size="16">G</text><line x1="432" x2="432" y1="0" y2="66" style="stroke:red"/><text x="427" y="81" font-size="16">H</text><rect y="0" width="500" height="100" style="fill:none;stroke-width:1;stroke:black;stroke-width:3"/></svg>
